<svg width="48" height="48" viewBox="0 0 48 48" fill="none" xmlns="http://www.w3.org/2000/svg">
<path fill-rule="evenodd" clip-rule="evenodd" d="M32.914 5.76601C27.0023 4.91654 20.9996 4.91654 15.088 5.76601C13.6639 5.9702 12.3504 6.64864 11.3596 7.69167C10.3688 8.73471 9.75875 10.0814 9.62797 11.514L9.37598 14.306C8.78931 20.7554 8.78931 27.2447 9.37598 33.694L9.62997 36.486C9.76066 37.9184 10.3705 39.2648 11.3608 40.3078C12.3512 41.3508 13.6643 42.0294 15.088 42.234C20.998 43.084 27.002 43.084 32.912 42.234C34.336 42.0298 35.6496 41.3514 36.6403 40.3084C37.6311 39.2653 38.2412 37.9187 38.372 36.486L38.624 33.694C39.21 27.244 39.21 20.754 38.624 14.306L38.37 11.514C38.2396 10.0815 37.63 8.73492 36.6395 7.69185C35.6491 6.64879 34.3358 5.97027 32.912 5.76601H32.914ZM20 18C20 16.9391 20.4214 15.9217 21.1715 15.1716C21.9217 14.4214 22.9391 14 24 14C25.0608 14 26.0783 14.4214 26.8284 15.1716C27.5785 15.9217 28 16.9391 28 18C28 19.0609 27.5785 20.0783 26.8284 20.8284C26.0783 21.5786 25.0608 22 24 22C22.9391 22 21.9217 21.5786 21.1715 20.8284C20.4214 20.0783 20 19.0609 20 18ZM16 31C16 29.4087 16.6321 27.8826 17.7573 26.7574C18.8826 25.6322 20.4087 25 22 25H26C27.5913 25 29.1174 25.6322 30.2426 26.7574C31.3678 27.8826 32 29.4087 32 31C32 31.5304 31.7893 32.0392 31.4142 32.4142C31.0391 32.7893 30.5304 33 30 33H18C17.4695 33 16.9608 32.7893 16.5858 32.4142C16.2107 32.0392 16 31.5304 16 31Z" fill="#333333"/>
</svg>
