<svg width="29" height="29" viewBox="0 0 29 29" fill="none" xmlns="http://www.w3.org/2000/svg">
<g clip-path="url(#clip0_57_28)">
<path d="M14.5 0C10.6552 0 6.96453 1.52862 4.24805 4.24691C1.52876 6.96629 0.000753252 10.6543 0 14.5C0 18.3441 1.5293 22.0348 4.24805 24.7531C6.96453 27.4714 10.6552 29 14.5 29C18.3448 29 22.0355 27.4714 24.752 24.7531C27.4707 22.0348 29 18.3441 29 14.5C29 10.6559 27.4707 6.96521 24.752 4.24691C22.0355 1.52862 18.3448 0 14.5 0Z" fill="url(#paint0_linear_57_28)"/>
<path d="M6.56352 14.3468C10.7912 12.5053 13.6096 11.2912 15.0188 10.7046C19.0471 9.02961 19.8831 8.7387 20.4291 8.72885C20.5492 8.72692 20.8166 8.7566 20.991 8.89763C21.136 9.01658 21.1768 9.17744 21.1972 9.29038C21.2153 9.40321 21.2402 9.66036 21.2198 9.86109C21.0023 12.1539 20.0576 17.7178 19.5773 20.2859C19.3756 21.3725 18.9746 21.7368 18.5872 21.7724C17.7444 21.8499 17.1055 21.216 16.2898 20.6815C15.0143 19.8448 14.2938 19.3242 13.0545 18.5078C11.6227 17.5644 12.5516 17.0458 13.3672 16.1985C13.5802 15.9767 17.2913 12.602 17.3615 12.296C17.3705 12.2577 17.3796 12.1149 17.2935 12.0397C17.2097 11.9643 17.0851 11.9901 16.9945 12.0105C16.8653 12.0395 14.8285 13.3871 10.8773 16.053C10.2995 16.4504 9.77617 16.6441 9.30492 16.634C8.78836 16.6228 7.79149 16.3412 7.05063 16.1006C6.14438 15.8054 5.42164 15.6493 5.48508 15.1479C5.5168 14.8869 5.87703 14.6198 6.56352 14.3468Z" fill="white"/>
</g>
<defs>
<linearGradient id="paint0_linear_57_28" x1="1450" y1="0" x2="1450" y2="2900" gradientUnits="userSpaceOnUse">
<stop stop-color="#2AABEE"/>
<stop offset="1" stop-color="#229ED9"/>
</linearGradient>
<clipPath id="clip0_57_28">
<rect width="29" height="29" fill="white"/>
</clipPath>
</defs>
</svg>
