<svg width="28" height="29" viewBox="0 0 28 29" fill="none" xmlns="http://www.w3.org/2000/svg">
<path d="M1.96 2.26166C3.70873e-07 4.23764 0 7.39734 0 13.7261V14.8445C0 21.1639 3.70873e-07 24.3236 1.96 26.3089C3.93867 28.2663 7.10267 28.2663 13.44 28.2663H14.56C20.888 28.2663 24.052 28.2663 26.04 26.3089C28 24.333 28 21.1733 28 14.8445V13.7261C28 7.40666 28 4.24696 26.04 2.26166C24.0613 0.304322 20.8973 0.304321 14.56 0.304321H13.44C7.112 0.304321 3.948 0.304322 1.96 2.26166ZM4.72267 8.81408H7.93333C8.036 14.1455 10.388 16.4011 12.2547 16.8671V8.81408H15.2693V13.4092C17.108 13.2134 19.0493 11.1163 19.7027 8.80476H22.708C22.463 10.0013 21.9736 11.1346 21.2702 12.1337C20.5668 13.1329 19.6646 13.9764 18.62 14.6115C19.7858 15.1908 20.8153 16.0103 21.6406 17.0161C22.466 18.0218 23.0683 19.1909 23.408 20.4462H20.0947C19.3853 18.2373 17.612 16.5223 15.2693 16.2892V20.4462H14.896C8.512 20.4462 4.872 16.0842 4.72267 8.81408Z" fill="black"/>
</svg>
