<svg width="28" height="29" viewBox="0 0 28 29" fill="none" xmlns="http://www.w3.org/2000/svg">
<path d="M0.116698 13.6645C0.116018 16.019 0.757746 18.3179 1.97798 20.3443L0 27.2676L7.39074 25.4099C9.43492 26.4767 11.7253 27.0357 14.0527 27.0359H14.0589C21.7423 27.0359 27.9967 21.0421 28 13.675C28.0015 10.1052 26.5526 6.74828 23.9202 4.22274C21.2883 1.69743 17.7879 0.305951 14.0583 0.304321C6.37399 0.304321 0.119984 6.29774 0.116812 13.6645" fill="url(#paint0_linear_87_3)"/>
<path d="M0.117031 14.1594C0.116266 16.6014 0.757969 18.9853 1.97794 21.0866L0 28.2663L7.39058 26.3397C9.42692 27.4436 11.7196 28.0255 14.0526 28.0264H14.0586C21.742 28.0264 27.9967 21.81 28 14.1705C28.0013 10.4682 26.5523 6.98667 23.9203 4.36769C21.288 1.74903 17.788 0.305844 14.0586 0.304321C6.37394 0.304321 0.120094 6.51985 0.117031 14.1594ZM4.51828 20.7247L4.24233 20.2892C3.0823 18.4554 2.47002 16.3363 2.47089 14.1603C2.47341 7.81048 7.67134 2.64439 14.063 2.64439C17.1583 2.64569 20.0672 3.8453 22.2552 6.02183C24.443 8.19857 25.6469 11.0921 25.6461 14.1697C25.6433 20.5195 20.4452 25.6862 14.0586 25.6862H14.054C11.9745 25.6851 9.93497 25.1299 8.15631 24.0807L7.73303 23.8311L3.34731 24.9743L4.51828 20.7246V20.7247Z" fill="url(#paint1_linear_87_3)"/>
<path d="M10.5593 7.8979C10.3013 7.32444 10.0297 7.31287 9.78428 7.30281C9.58333 7.29416 9.35362 7.29481 9.12412 7.29481C8.8944 7.29481 8.52117 7.38121 8.20569 7.72563C7.88988 8.07038 7 8.90347 7 10.5979C7 12.2924 8.23435 13.9299 8.40642 14.1599C8.5787 14.3895 10.7893 17.978 14.2905 19.3585C17.2002 20.5057 17.7923 20.2775 18.4238 20.22C19.0555 20.1627 20.4619 19.3871 20.7488 18.5829C21.0359 17.7788 21.0359 17.0895 20.9499 16.9455C20.8638 16.802 20.6341 16.7158 20.2896 16.5436C19.945 16.3714 18.2516 15.5382 17.9359 15.4232C17.6201 15.3084 17.3904 15.2511 17.1607 15.5959C16.931 15.9402 16.2714 16.7158 16.0703 16.9455C15.8695 17.1757 15.6684 17.2043 15.3241 17.0321C14.9794 16.8593 13.8701 16.496 12.554 15.3229C11.53 14.41 10.8387 13.2826 10.6377 12.9378C10.4368 12.5935 10.6162 12.4068 10.7889 12.2352C10.9437 12.0809 11.1335 11.833 11.3059 11.632C11.4776 11.4309 11.535 11.2874 11.6498 11.0577C11.7648 10.8278 11.7072 10.6266 11.6213 10.4544C11.535 10.2821 10.8656 8.57884 10.5593 7.8979Z" fill="white"/>
<defs>
<linearGradient id="paint0_linear_87_3" x1="1400" y1="2696.64" x2="1400" y2="0.304321" gradientUnits="userSpaceOnUse">
<stop stop-color="#1FAF38"/>
<stop offset="1" stop-color="#60D669"/>
</linearGradient>
<linearGradient id="paint1_linear_87_3" x1="1400" y1="2796.5" x2="1400" y2="0.304321" gradientUnits="userSpaceOnUse">
<stop stop-color="#F9F9F9"/>
<stop offset="1" stop-color="white"/>
</linearGradient>
</defs>
</svg>
