<svg width="148" height="64" viewBox="0 0 148 64" fill="none" xmlns="http://www.w3.org/2000/svg">
<path d="M12 26.6667V18.6667C12 17.1939 13.1939 16 14.6667 16H19.5M12 26.6667V53.3333C12 54.8061 13.1939 56 14.6667 56H49.3333C50.8061 56 52 54.8061 52 53.3333V26.6667M12 26.6667H52M19.5 16V8M19.5 16H43.2501M52 26.6667V18.6667C52 17.1939 50.8061 16 49.3333 16H43.2501M43.2501 16V8" stroke="#3D3B7E" stroke-width="5.33333" stroke-linecap="round" stroke-linejoin="round"/>
<path d="M21.3334 37.3333H42.6667" stroke="#3D3B7E" stroke-width="5.33333" stroke-linecap="round" stroke-linejoin="round"/>
<path d="M65.98 30V16H76.88V18.14H68.54V21.58H72.68C74.36 21.58 75.6333 21.9333 76.5 22.64C77.38 23.3333 77.82 24.3467 77.82 25.68C77.82 27.0533 77.3333 28.12 76.36 28.88C75.4 29.6267 74.04 30 72.28 30H65.98ZM68.54 28H72.14C73.14 28 73.9 27.8067 74.42 27.42C74.94 27.0333 75.2 26.4733 75.2 25.74C75.2 24.3 74.18 23.58 72.14 23.58H68.54V28ZM86.307 30.14C85.4404 30.14 84.647 29.94 83.927 29.54C83.2204 29.14 82.6537 28.54 82.227 27.74C81.8137 26.9267 81.607 25.9 81.607 24.66C81.607 23.4067 81.807 22.38 82.207 21.58C82.6204 20.78 83.1804 20.1867 83.887 19.8C84.5937 19.4 85.4004 19.2 86.307 19.2C87.3604 19.2 88.287 19.4267 89.087 19.88C89.9004 20.3333 90.5404 20.9667 91.007 21.78C91.487 22.5933 91.727 23.5533 91.727 24.66C91.727 25.7667 91.487 26.7333 91.007 27.56C90.5404 28.3733 89.9004 29.0067 89.087 29.46C88.287 29.9133 87.3604 30.14 86.307 30.14ZM80.387 33.88V19.32H82.767V21.84L82.687 24.68L82.887 27.52V33.88H80.387ZM86.027 28C86.627 28 87.1604 27.8667 87.627 27.6C88.107 27.3333 88.487 26.9467 88.767 26.44C89.047 25.9333 89.187 25.34 89.187 24.66C89.187 23.9667 89.047 23.3733 88.767 22.88C88.487 22.3733 88.107 21.9867 87.627 21.72C87.1604 21.4533 86.627 21.32 86.027 21.32C85.427 21.32 84.887 21.4533 84.407 21.72C83.927 21.9867 83.547 22.3733 83.267 22.88C82.987 23.3733 82.847 23.9667 82.847 24.66C82.847 25.34 82.987 25.9333 83.267 26.44C83.547 26.9467 83.927 27.3333 84.407 27.6C84.887 27.8667 85.427 28 86.027 28ZM98.9752 30.14C97.8818 30.14 96.9085 29.9067 96.0552 29.44C95.2018 28.96 94.5285 28.3067 94.0352 27.48C93.5418 26.6533 93.2952 25.7133 93.2952 24.66C93.2952 23.5933 93.5418 22.6533 94.0352 21.84C94.5285 21.0133 95.2018 20.3667 96.0552 19.9C96.9085 19.4333 97.8818 19.2 98.9752 19.2C100.082 19.2 101.062 19.4333 101.915 19.9C102.782 20.3667 103.455 21.0067 103.935 21.82C104.428 22.6333 104.675 23.58 104.675 24.66C104.675 25.7133 104.428 26.6533 103.935 27.48C103.455 28.3067 102.782 28.96 101.915 29.44C101.062 29.9067 100.082 30.14 98.9752 30.14ZM98.9752 28C99.5885 28 100.135 27.8667 100.615 27.6C101.095 27.3333 101.468 26.9467 101.735 26.44C102.015 25.9333 102.155 25.34 102.155 24.66C102.155 23.9667 102.015 23.3733 101.735 22.88C101.468 22.3733 101.095 21.9867 100.615 21.72C100.135 21.4533 99.5952 21.32 98.9952 21.32C98.3818 21.32 97.8352 21.4533 97.3552 21.72C96.8885 21.9867 96.5152 22.3733 96.2352 22.88C95.9552 23.3733 95.8152 23.9667 95.8152 24.66C95.8152 25.34 95.9552 25.9333 96.2352 26.44C96.5152 26.9467 96.8885 27.3333 97.3552 27.6C97.8352 27.8667 98.3752 28 98.9752 28ZM107.145 30V19.32H109.645V23.66H115.025V19.32H117.525V30H115.025V25.78H109.645V30H107.145ZM126.235 22.84C127.609 22.84 128.655 23.1467 129.375 23.76C130.095 24.3733 130.455 25.24 130.455 26.36C130.455 27.52 130.055 28.4267 129.255 29.08C128.455 29.72 127.329 30.0333 125.875 30.02L120.875 30V19.32H123.375V22.82L126.235 22.84ZM125.655 28.18C126.389 28.1933 126.949 28.04 127.335 27.72C127.722 27.4 127.915 26.9333 127.915 26.32C127.915 25.7067 127.722 25.2667 127.335 25C126.962 24.72 126.402 24.5733 125.655 24.56L123.375 24.54V28.16L125.655 28.18ZM72.46 54.2C71.3667 54.2 70.36 54.02 69.44 53.66C68.52 53.3 67.72 52.8 67.04 52.16C66.36 51.5067 65.8333 50.7467 65.46 49.88C65.0867 49 64.9 48.04 64.9 47C64.9 45.96 65.0867 45.0067 65.46 44.14C65.8333 43.26 66.36 42.5 67.04 41.86C67.72 41.2067 68.52 40.7 69.44 40.34C70.36 39.98 71.36 39.8 72.44 39.8C73.5333 39.8 74.5333 39.98 75.44 40.34C76.36 40.7 77.16 41.2067 77.84 41.86C78.52 42.5 79.0467 43.26 79.42 44.14C79.7933 45.0067 79.98 45.96 79.98 47C79.98 48.04 79.7933 49 79.42 49.88C79.0467 50.76 78.52 51.52 77.84 52.16C77.16 52.8 76.36 53.3 75.44 53.66C74.5333 54.02 73.54 54.2 72.46 54.2ZM72.44 51.92C73.1467 51.92 73.8 51.8 74.4 51.56C75 51.32 75.52 50.98 75.96 50.54C76.4 50.0867 76.74 49.5667 76.98 48.98C77.2333 48.38 77.36 47.72 77.36 47C77.36 46.28 77.2333 45.6267 76.98 45.04C76.74 44.44 76.4 43.92 75.96 43.48C75.52 43.0267 75 42.68 74.4 42.44C73.8 42.2 73.1467 42.08 72.44 42.08C71.7333 42.08 71.08 42.2 70.48 42.44C69.8933 42.68 69.3733 43.0267 68.92 43.48C68.48 43.92 68.1333 44.44 67.88 45.04C67.64 45.6267 67.52 46.28 67.52 47C67.52 47.7067 67.64 48.36 67.88 48.96C68.1333 49.56 68.48 50.0867 68.92 50.54C69.36 50.98 69.88 51.32 70.48 51.56C71.08 51.8 71.7333 51.92 72.44 51.92ZM82.5745 54V43.32H85.0745V47.66H90.4545V43.32H92.9545V54H90.4545V49.78H85.0745V54H82.5745ZM94.745 53.98L94.865 51.88C94.9583 51.8933 95.045 51.9067 95.125 51.92C95.205 51.9333 95.2783 51.94 95.345 51.94C95.7583 51.94 96.0783 51.8133 96.305 51.56C96.5317 51.3067 96.6983 50.9667 96.805 50.54C96.925 50.1 97.005 49.6133 97.045 49.08C97.0983 48.5333 97.1383 47.9867 97.165 47.44L97.345 43.32H105.985V54H103.485V44.76L104.065 45.44H98.985L99.525 44.74L99.385 47.56C99.345 48.5067 99.265 49.3867 99.145 50.2C99.0383 51 98.865 51.7 98.625 52.3C98.3983 52.9 98.0783 53.3667 97.665 53.7C97.265 54.0333 96.7517 54.2 96.125 54.2C95.925 54.2 95.705 54.18 95.465 54.14C95.2383 54.1 94.9983 54.0467 94.745 53.98ZM115.832 54V51.84L115.692 51.38V47.6C115.692 46.8667 115.472 46.3 115.032 45.9C114.592 45.4867 113.925 45.28 113.032 45.28C112.432 45.28 111.839 45.3733 111.252 45.56C110.679 45.7467 110.192 46.0067 109.792 46.34L108.812 44.52C109.385 44.08 110.065 43.7533 110.852 43.54C111.652 43.3133 112.479 43.2 113.332 43.2C114.879 43.2 116.072 43.5733 116.912 44.32C117.765 45.0533 118.192 46.1933 118.192 47.74V54H115.832ZM112.472 54.14C111.672 54.14 110.972 54.0067 110.372 53.74C109.772 53.46 109.305 53.08 108.972 52.6C108.652 52.1067 108.492 51.5533 108.492 50.94C108.492 50.34 108.632 49.8 108.912 49.32C109.205 48.84 109.679 48.46 110.332 48.18C110.985 47.9 111.852 47.76 112.932 47.76H116.032V49.42H113.112C112.259 49.42 111.685 49.56 111.392 49.84C111.099 50.1067 110.952 50.44 110.952 50.84C110.952 51.2933 111.132 51.6533 111.492 51.92C111.852 52.1867 112.352 52.32 112.992 52.32C113.605 52.32 114.152 52.18 114.632 51.9C115.125 51.62 115.479 51.2067 115.692 50.66L116.112 52.16C115.872 52.7867 115.439 53.2733 114.812 53.62C114.199 53.9667 113.419 54.14 112.472 54.14ZM121.285 54V43.32H123.785V50.36L129.685 43.32H131.965V54H129.465V46.96L123.585 54H121.285ZM126.465 42.06C125.399 42.06 124.579 41.8133 124.005 41.32C123.432 40.8133 123.139 40.08 123.125 39.12H124.785C124.799 39.6 124.945 39.98 125.225 40.26C125.519 40.54 125.925 40.68 126.445 40.68C126.952 40.68 127.352 40.54 127.645 40.26C127.952 39.98 128.112 39.6 128.125 39.12H129.825C129.812 40.08 129.512 40.8133 128.925 41.32C128.352 41.8133 127.532 42.06 126.465 42.06ZM135.328 54V43.32H137.828V47.66H143.208V43.32H145.708V54H143.208V49.78H137.828V54H135.328Z" fill="#3D3B7E"/>
<path d="M12 26.6667V18.6667C12 17.1939 13.1939 16 14.6667 16H19.5M12 26.6667V53.3333C12 54.8061 13.1939 56 14.6667 56H49.3333C50.8061 56 52 54.8061 52 53.3333V26.6667M12 26.6667H52M19.5 16V8M19.5 16H43.2501M52 26.6667V18.6667C52 17.1939 50.8061 16 49.3333 16H43.2501M43.2501 16V8" stroke="#3D3B7E" stroke-width="5.33333" stroke-linecap="round" stroke-linejoin="round"/>
<path d="M21.3334 37.3333H42.6667" stroke="#3D3B7E" stroke-width="5.33333" stroke-linecap="round" stroke-linejoin="round"/>
</svg>
