<svg width="46" height="46" viewBox="0 0 46 46" fill="none" xmlns="http://www.w3.org/2000/svg">
<path d="M40.25 32.5833V15.3333H13.4166V32.5833H40.25ZM40.25 5.75001C41.2666 5.75001 42.2416 6.15387 42.9605 6.87276C43.6794 7.59165 44.0833 8.56668 44.0833 9.58334V32.5833C44.0833 33.6 43.6794 34.575 42.9605 35.2939C42.2416 36.0128 41.2666 36.4167 40.25 36.4167H13.4166C12.4 36.4167 11.4249 36.0128 10.706 35.2939C9.98716 34.575 9.58329 33.6 9.58329 32.5833V9.58334C9.58329 8.56668 9.98716 7.59165 10.706 6.87276C11.4249 6.15387 12.4 5.75001 13.4166 5.75001H15.3333V1.91667H19.1666V5.75001H34.5V1.91667H38.3333V5.75001H40.25ZM5.74996 40.25H32.5833V44.0833H5.74996C4.7333 44.0833 3.75827 43.6795 3.03938 42.9606C2.32049 42.2417 1.91663 41.2667 1.91663 40.25V17.25H5.74996V40.25ZM36.4166 28.75H28.75V21.0833H36.4166V28.75Z" fill="#333333"/>
</svg>
